<?xml version="1.0" standalone="no"?>
<!DOCTYPE svg PUBLIC "-//W3C//DTD SVG 20010904//EN"
 "http://www.w3.org/TR/2001/REC-SVG-20010904/DTD/svg10.dtd">
<svg version="1.0" xmlns="http://www.w3.org/2000/svg"
 width="163.000000pt" height="62.000000pt" viewBox="0 0 163.000000 62.000000"
 preserveAspectRatio="xMidYMid meet">

<g transform="translate(0.000000,62.000000) scale(0.100000,-0.100000)"
fill="#000000" stroke="none">
<path d="M252 578 c-8 -8 -7 -526 0 -534 7 -6 418 -7 425 -1 6 7 5 529 -2 536
-8 8 -415 7 -423 -1z m238 -139 c0 -84 -10 -119 -35 -119 -12 0 -15 17 -15 88
0 87 8 112 37 112 10 0 13 -21 13 -81z m-60 -111 c0 -62 -4 -86 -17 -100 -9
-10 -20 -18 -25 -18 -9 0 -11 160 -2 184 3 9 15 16 25 16 17 0 19 -8 19 -82z
m120 -2 c0 -64 -4 -88 -16 -100 -8 -9 -20 -16 -25 -16 -14 0 -11 174 3 188 29
29 38 13 38 -72z m-60 -104 c0 -87 -8 -112 -37 -112 -10 0 -13 23 -13 90 0 74
3 91 18 99 9 6 20 11 25 11 4 0 7 -40 7 -88z"/>
<path d="M833 568 c-36 -18 -44 -54 -41 -203 l3 -140 27 -3 c27 -3 27 -3 30
65 3 60 5 68 23 68 18 0 20 -8 23 -68 3 -68 3 -68 30 -65 l27 3 3 140 c3 152
-4 186 -44 204 -30 13 -52 13 -81 -1z m62 -103 c0 -43 -3 -50 -20 -50 -16 0
-21 8 -23 39 -4 49 3 68 25 64 14 -3 18 -14 18 -53z"/>
<path d="M996 572 c-9 -14 25 -325 36 -339 14 -17 93 -17 107 0 11 14 43 325
34 340 -7 12 -43 8 -49 -6 -2 -7 -10 -73 -17 -147 -16 -175 -32 -183 -42 -19
-9 148 -15 173 -42 177 -12 2 -24 -1 -27 -6z"/>
<path d="M1246 559 l-26 -20 0 -160 0 -159 25 0 c23 0 24 3 27 68 3 60 5 67
25 70 21 3 22 -1 25 -65 3 -65 4 -68 28 -68 l25 0 3 130 c4 166 -1 191 -38
210 -39 20 -62 19 -94 -6z m69 -94 c0 -43 -3 -50 -20 -50 -16 0 -21 8 -23 39
-4 49 3 68 25 64 14 -3 18 -14 18 -53z"/>
<path d="M792 103 l2 -58 3 50 c3 27 10 53 16 57 8 5 6 8 -5 8 -15 0 -18 -9
-16 -57z"/>
<path d="M911 103 c1 -32 4 -47 6 -33 3 14 10 28 17 32 8 6 8 8 -1 8 -7 0 -13
9 -13 19 0 11 6 22 13 24 7 3 5 6 -5 6 -15 1 -18 -8 -17 -56z"/>
<path d="M1046 147 c3 -10 9 -15 12 -12 3 3 0 11 -7 18 -10 9 -11 8 -5 -6z"/>
<path d="M1230 156 c0 -2 7 -7 16 -10 8 -3 12 -2 9 4 -6 10 -25 14 -25 6z"/>
<path d="M1340 151 c0 -6 7 -8 14 -5 12 4 16 -6 19 -48 l4 -53 -1 55 c-1 44
-5 55 -18 58 -10 2 -18 -1 -18 -7z"/>
<path d="M1133 100 c0 -30 2 -43 4 -28 2 16 2 40 0 55 -2 16 -4 3 -4 -27z"/>
<path d="M1039 98 c7 -10 11 -25 7 -33 -3 -9 -2 -13 4 -10 15 10 12 31 -7 46
-16 13 -17 12 -4 -3z"/>
</g>
</svg>
